<svg width="26" height="27" viewBox="0 0 26 27" fill="none" xmlns="http://www.w3.org/2000/svg">
<rect y="0.524902" width="26" height="26" rx="4" fill="#FAB82E"/>
<path fill-rule="evenodd" clip-rule="evenodd" d="M7.58579 6.77738C7.96086 6.4023 8.46957 6.19159 9 6.19159H14.3333C14.5101 6.19159 14.6797 6.26183 14.8047 6.38685L18.8047 10.3869C18.9298 10.5119 19 10.6814 19 10.8583V18.8583C19 19.3887 18.7893 19.8974 18.4142 20.2725C18.0391 20.6475 17.5304 20.8583 17 20.8583H9C8.46957 20.8583 7.96086 20.6475 7.58579 20.2725C7.21071 19.8974 7 19.3887 7 18.8583V8.19159C7 7.66116 7.21071 7.15245 7.58579 6.77738ZM9 7.52492C8.82319 7.52492 8.65362 7.59516 8.5286 7.72018C8.40357 7.84521 8.33333 8.01478 8.33333 8.19159V18.8583C8.33333 19.0351 8.40357 19.2046 8.5286 19.3297C8.65362 19.4547 8.82319 19.5249 9 19.5249H17C17.1768 19.5249 17.3464 19.4547 17.4714 19.3297C17.5964 19.2046 17.6667 19.0351 17.6667 18.8583V11.5249H14.3333C13.9651 11.5249 13.6667 11.2264 13.6667 10.8583V7.52492H9ZM15 8.46773L16.7239 10.1916H15V8.46773ZM9.66667 11.5249C9.66667 11.1567 9.96514 10.8583 10.3333 10.8583H11.6667C12.0349 10.8583 12.3333 11.1567 12.3333 11.5249C12.3333 11.8931 12.0349 12.1916 11.6667 12.1916H10.3333C9.96514 12.1916 9.66667 11.8931 9.66667 11.5249ZM9.66667 14.1916C9.66667 13.8234 9.96514 13.5249 10.3333 13.5249H15.6667C16.0349 13.5249 16.3333 13.8234 16.3333 14.1916C16.3333 14.5598 16.0349 14.8583 15.6667 14.8583H10.3333C9.96514 14.8583 9.66667 14.5598 9.66667 14.1916ZM9.66667 16.8583C9.66667 16.4901 9.96514 16.1916 10.3333 16.1916H15.6667C16.0349 16.1916 16.3333 16.4901 16.3333 16.8583C16.3333 17.2264 16.0349 17.5249 15.6667 17.5249H10.3333C9.96514 17.5249 9.66667 17.2264 9.66667 16.8583Z" fill="#FFE3B4"/>
</svg>
