<svg width="40" height="41" viewBox="0 0 40 41" fill="none" xmlns="http://www.w3.org/2000/svg">
<rect y="0.524902" width="40" height="40" rx="5" fill="#F4F4F4"/>
<path d="M14.9967 16.1249C16.3408 16.1249 17.4088 16.5049 18.2008 17.2649C18.9928 18.0169 19.3888 19.0369 19.3888 20.3249C19.3888 21.6129 18.9928 22.6369 18.2008 23.3969C17.4088 24.1489 16.3408 24.5249 14.9967 24.5249H12.3208V16.1249H14.9967ZM13.8328 17.4689L13.8088 17.4929C13.8408 17.5729 13.8568 17.6849 13.8568 17.8289V22.8209C13.8568 22.9649 13.8408 23.0769 13.8088 23.1569L13.8328 23.1809C13.8888 23.1409 13.9928 23.1209 14.1448 23.1209H15.0688C15.9088 23.1209 16.5648 22.8729 17.0368 22.3769C17.5168 21.8809 17.7568 21.1969 17.7568 20.3249C17.7568 19.4529 17.5168 18.7689 17.0368 18.2729C16.5568 17.7769 15.9008 17.5289 15.0688 17.5289H14.1448C13.9928 17.5289 13.8888 17.5089 13.8328 17.4689ZM20.8576 16.0049L25.6336 20.7689C25.9056 21.0489 26.1056 21.3329 26.2336 21.6209L26.2816 21.6089C26.1936 21.3209 26.1496 20.8249 26.1496 20.1209V16.1249H27.6856V24.6449H27.4336L22.6696 19.8809C22.3976 19.6089 22.1936 19.3249 22.0576 19.0289L22.0096 19.0409C22.0976 19.3289 22.1416 19.8249 22.1416 20.5289V24.5249H20.6176V16.0049H20.8576Z" fill="black"/>
</svg>
