<svg width="40" height="41" viewBox="0 0 40 41" fill="none" xmlns="http://www.w3.org/2000/svg">
<rect y="0.524902" width="40" height="40" rx="5" fill="#FAB82E"/>
<path fill-rule="evenodd" clip-rule="evenodd" d="M10 14.2349C10 13.6826 10.4477 13.2349 11 13.2349H29C29.5523 13.2349 30 13.6826 30 14.2349C30 14.7871 29.5523 15.2349 29 15.2349H11C10.4477 15.2349 10 14.7871 10 14.2349ZM10 20.2349C10 19.6826 10.4477 19.2349 11 19.2349H29C29.5523 19.2349 30 19.6826 30 20.2349C30 20.7871 29.5523 21.2349 29 21.2349H11C10.4477 21.2349 10 20.7871 10 20.2349ZM10 26.2349C10 25.6826 10.4477 25.2349 11 25.2349H29C29.5523 25.2349 30 25.6826 30 26.2349C30 26.7871 29.5523 27.2349 29 27.2349H11C10.4477 27.2349 10 26.7871 10 26.2349Z" fill="white"/>
</svg>
