<svg width="1860" height="24" viewBox="0 0 1860 24" fill="none" xmlns="http://www.w3.org/2000/svg">
<g filter="url(#filter0_d_392_13971)">
<path d="M1267.59 3.4249V4.5429H1265.26C1265.1 4.5429 1264.99 4.5299 1264.93 4.5039L1264.91 4.5299C1264.94 4.59057 1264.95 4.69457 1264.95 4.8419V12.5249H1263.78V4.8419C1263.78 4.69457 1263.8 4.59057 1263.82 4.5299L1263.8 4.5039C1263.73 4.5299 1263.63 4.5429 1263.47 4.5429H1261.13V3.4249H1267.59Z" fill="#2B2B2A"/>
<g clip-path="url(#clip0_392_13971)">
<path d="M1276.41 9.29114C1276.38 9.27143 1276.36 9.24417 1276.34 9.21191C1276.32 9.17964 1276.31 9.14341 1276.31 9.10657V3.21344C1276.31 2.86534 1276.17 2.5315 1275.93 2.28536C1275.68 2.03922 1275.35 1.90094 1275 1.90094C1274.65 1.90094 1274.32 2.03922 1274.07 2.28536C1273.83 2.5315 1273.69 2.86534 1273.69 3.21344V9.10657C1273.69 9.14334 1273.68 9.1795 1273.66 9.21171C1273.64 9.24392 1273.62 9.27115 1273.59 9.29086C1273.2 9.54411 1272.88 9.89442 1272.67 10.3072C1272.46 10.7199 1272.36 11.1808 1272.38 11.6443C1272.41 12.3293 1272.71 12.9749 1273.21 13.4429C1273.71 13.911 1274.37 14.1644 1275.06 14.1489C1275.74 14.1334 1276.4 13.8503 1276.88 13.3602C1277.36 12.87 1277.62 12.2116 1277.62 11.5259C1277.62 11.0821 1277.51 10.6452 1277.3 10.2549C1277.09 9.86468 1276.79 9.53339 1276.41 9.29114V9.29114Z" stroke="black" stroke-width="1.00189" stroke-miterlimit="10" stroke-linecap="round"/>
<path d="M1275 4.08881V11.5263" stroke="black" stroke-width="1.00189" stroke-miterlimit="10" stroke-linecap="round"/>
<path d="M1275 12.8394C1275.73 12.8394 1276.31 12.2513 1276.31 11.5259C1276.31 10.8005 1275.73 10.2125 1275 10.2125C1274.28 10.2125 1273.69 10.8005 1273.69 11.5259C1273.69 12.2513 1274.28 12.8394 1275 12.8394Z" fill="black"/>
</g>
<path d="M1296.51 3.4249V4.1139H1293.99C1293.84 4.1139 1293.73 4.1009 1293.65 4.0749L1293.64 4.0879C1293.67 4.1659 1293.68 4.27424 1293.68 4.4129V12.5249H1292.96V4.4129C1292.96 4.27424 1292.98 4.1659 1293 4.0879L1292.99 4.0749C1292.89 4.1009 1292.78 4.1139 1292.65 4.1139H1290.13V3.4249H1296.51ZM1298.81 6.3239C1299.68 6.3239 1300.37 6.60557 1300.89 7.1689C1301.41 7.73224 1301.67 8.49057 1301.67 9.4439V9.5999H1296.96C1296.68 9.5999 1296.5 9.57824 1296.41 9.5349L1296.4 9.5479L1296.43 9.6649C1296.44 10.4016 1296.66 10.9909 1297.1 11.4329C1297.55 11.8662 1298.13 12.0829 1298.86 12.0829C1299.31 12.0829 1299.71 11.9919 1300.05 11.8099C1300.41 11.6192 1300.75 11.3116 1301.08 10.8869L1301.55 11.3159C1300.86 12.2519 1299.96 12.7199 1298.85 12.7199C1297.9 12.7199 1297.15 12.4296 1296.58 11.8489C1296.02 11.2596 1295.74 10.4796 1295.74 9.5089C1295.74 8.53824 1296.02 7.7669 1296.57 7.1949C1297.13 6.61424 1297.88 6.3239 1298.81 6.3239ZM1298.79 6.9479C1298.12 6.9479 1297.57 7.1429 1297.14 7.5329C1296.73 7.9229 1296.49 8.45157 1296.43 9.1189L1296.44 9.1319C1296.55 9.07124 1296.73 9.0409 1296.97 9.0409H1300.37C1300.6 9.0409 1300.8 9.0669 1300.95 9.1189L1300.96 9.1059C1300.91 8.42124 1300.7 7.89257 1300.31 7.5199C1299.94 7.13857 1299.43 6.9479 1298.79 6.9479ZM1306.09 12.6289L1304.64 9.1059C1304.48 8.72457 1304.35 8.30424 1304.23 7.8449H1304.19C1304.19 8.16557 1304.1 8.59024 1303.93 9.1189L1302.84 12.5249H1302.13L1304.12 6.4019H1304.23L1305.82 10.3149C1305.99 10.7742 1306.1 11.1339 1306.14 11.3939H1306.17C1306.21 11.1339 1306.32 10.7742 1306.5 10.3149L1308.08 6.4019H1308.2L1310.19 12.5249H1309.47L1308.38 9.1189C1308.22 8.59024 1308.13 8.16557 1308.12 7.8449H1308.08C1307.97 8.30424 1307.83 8.72457 1307.68 9.1059L1306.22 12.6289H1306.09ZM1316.2 6.5189V12.5249H1315.54V7.4289C1315.54 7.29024 1315.56 7.17757 1315.6 7.0909L1315.59 7.0779C1315.52 7.11257 1315.4 7.1299 1315.23 7.1299H1312.16C1311.99 7.1299 1311.86 7.11257 1311.79 7.0779L1311.78 7.0909C1311.82 7.17757 1311.85 7.29024 1311.85 7.4289V12.5249H1311.2V6.5189H1316.2ZM1320.67 6.3239C1321.54 6.3239 1322.24 6.60557 1322.75 7.1689C1323.27 7.73224 1323.53 8.49057 1323.53 9.4439V9.5999H1318.82C1318.54 9.5999 1318.36 9.57824 1318.28 9.5349L1318.26 9.5479L1318.29 9.6649C1318.3 10.4016 1318.52 10.9909 1318.96 11.4329C1319.41 11.8662 1319.99 12.0829 1320.72 12.0829C1321.17 12.0829 1321.57 11.9919 1321.92 11.8099C1322.27 11.6192 1322.61 11.3116 1322.94 10.8869L1323.41 11.3159C1322.73 12.2519 1321.82 12.7199 1320.71 12.7199C1319.76 12.7199 1319.01 12.4296 1318.44 11.8489C1317.88 11.2596 1317.6 10.4796 1317.6 9.5089C1317.6 8.53824 1317.88 7.7669 1318.43 7.1949C1318.99 6.61424 1319.74 6.3239 1320.67 6.3239ZM1320.65 6.9479C1319.98 6.9479 1319.43 7.1429 1319 7.5329C1318.59 7.9229 1318.35 8.45157 1318.29 9.1189L1318.3 9.1319C1318.41 9.07124 1318.59 9.0409 1318.83 9.0409H1322.23C1322.46 9.0409 1322.66 9.0669 1322.81 9.1189L1322.83 9.1059C1322.77 8.42124 1322.56 7.89257 1322.18 7.5199C1321.8 7.13857 1321.3 6.9479 1320.65 6.9479ZM1328.29 6.3239C1329.18 6.3239 1329.9 6.6229 1330.46 7.2209C1331.02 7.81024 1331.3 8.57724 1331.3 9.5219C1331.3 10.4666 1331.02 11.2379 1330.46 11.8359C1329.9 12.4252 1329.18 12.7199 1328.29 12.7199C1326.98 12.7199 1326.08 12.1176 1325.6 10.9129L1325.54 10.9259C1325.63 11.2726 1325.67 11.6972 1325.67 12.1999V15.1249H1325.02V6.5189H1325.66C1325.66 7.29024 1325.63 7.84057 1325.57 8.1699L1325.61 8.1829C1325.83 7.59357 1326.18 7.13857 1326.64 6.8179C1327.1 6.48857 1327.65 6.3239 1328.29 6.3239ZM1328.2 6.9869C1327.43 6.9869 1326.81 7.22524 1326.34 7.7019C1325.86 8.1699 1325.62 8.77657 1325.62 9.5219C1325.62 10.2759 1325.86 10.8869 1326.35 11.3549C1326.83 11.8229 1327.46 12.0569 1328.23 12.0569C1328.94 12.0569 1329.52 11.8272 1329.95 11.3679C1330.38 10.9086 1330.6 10.2976 1330.6 9.5349C1330.6 8.76357 1330.38 8.14824 1329.94 7.6889C1329.5 7.2209 1328.92 6.9869 1328.2 6.9869ZM1335.11 6.3239C1335.93 6.3239 1336.54 6.51457 1336.93 6.8959C1337.32 7.27724 1337.51 7.86657 1337.51 8.6639V12.5249H1336.86C1336.86 12.1869 1336.89 11.7926 1336.94 11.3419L1336.91 11.3289C1336.72 11.7622 1336.42 12.1046 1336 12.3559C1335.59 12.5986 1335.12 12.7199 1334.59 12.7199C1333.89 12.7199 1333.32 12.5249 1332.88 12.1349C1332.46 11.7362 1332.25 11.2162 1332.25 10.5749C1332.25 9.9249 1332.46 9.40924 1332.88 9.0279C1333.32 8.6379 1333.89 8.4429 1334.61 8.4429C1335.14 8.4429 1335.61 8.56424 1336.02 8.8069C1336.43 9.0409 1336.73 9.36157 1336.9 9.7689L1336.94 9.7429C1336.9 9.59557 1336.88 9.2489 1336.88 8.7029C1336.87 7.55024 1336.27 6.9739 1335.09 6.9739C1334.51 6.9739 1333.83 7.09524 1333.08 7.3379L1332.88 6.6879C1333.72 6.44524 1334.46 6.3239 1335.11 6.3239ZM1334.73 9.0539C1334.19 9.0539 1333.76 9.1969 1333.44 9.4829C1333.12 9.76024 1332.96 10.1329 1332.96 10.6009C1332.96 11.0516 1333.12 11.4156 1333.44 11.6929C1333.76 11.9702 1334.19 12.1089 1334.73 12.1089C1335.29 12.1089 1335.77 11.9616 1336.16 11.6669C1336.55 11.3722 1336.75 11.0126 1336.75 10.5879C1336.75 10.1546 1336.55 9.79057 1336.16 9.4959C1335.77 9.20124 1335.29 9.0539 1334.73 9.0539ZM1338.07 6.5189H1343.76V7.1299H1341.55C1341.38 7.1299 1341.26 7.11257 1341.19 7.0779L1341.17 7.0909C1341.22 7.17757 1341.24 7.29024 1341.24 7.4289V12.5249H1340.59V7.4289C1340.59 7.29024 1340.61 7.17757 1340.65 7.0909L1340.64 7.0779C1340.57 7.11257 1340.45 7.1299 1340.28 7.1299H1338.07V6.5189ZM1349.73 6.5189L1345.95 15.1249H1345.26L1346.58 12.0829L1343.96 6.5189H1344.73L1346.47 10.3409C1346.72 10.8782 1346.86 11.3029 1346.9 11.6149H1346.95C1346.98 11.3029 1347.12 10.8826 1347.35 10.3539L1349.02 6.5189H1349.73ZM1354.02 6.3239C1354.91 6.3239 1355.64 6.6229 1356.19 7.2209C1356.75 7.81024 1357.04 8.57724 1357.04 9.5219C1357.04 10.4666 1356.75 11.2379 1356.19 11.8359C1355.64 12.4252 1354.91 12.7199 1354.02 12.7199C1352.71 12.7199 1351.81 12.1176 1351.33 10.9129L1351.28 10.9259C1351.36 11.2726 1351.41 11.6972 1351.41 12.1999V15.1249H1350.76V6.5189H1351.39C1351.39 7.29024 1351.36 7.84057 1351.3 8.1699L1351.34 8.1829C1351.57 7.59357 1351.91 7.13857 1352.37 6.8179C1352.84 6.48857 1353.39 6.3239 1354.02 6.3239ZM1353.93 6.9869C1353.17 6.9869 1352.55 7.22524 1352.07 7.7019C1351.59 8.1699 1351.35 8.77657 1351.35 9.5219C1351.35 10.2759 1351.6 10.8869 1352.08 11.3549C1352.57 11.8229 1353.2 12.0569 1353.97 12.0569C1354.68 12.0569 1355.25 11.8272 1355.68 11.3679C1356.12 10.9086 1356.33 10.2976 1356.33 9.5349C1356.33 8.76357 1356.11 8.14824 1355.67 7.6889C1355.24 7.2209 1354.66 6.9869 1353.93 6.9869ZM1360.84 6.3239C1361.66 6.3239 1362.27 6.51457 1362.66 6.8959C1363.05 7.27724 1363.25 7.86657 1363.25 8.6639V12.5249H1362.6C1362.6 12.1869 1362.62 11.7926 1362.67 11.3419L1362.65 11.3289C1362.46 11.7622 1362.15 12.1046 1361.74 12.3559C1361.32 12.5986 1360.85 12.7199 1360.32 12.7199C1359.62 12.7199 1359.05 12.5249 1358.62 12.1349C1358.19 11.7362 1357.98 11.2162 1357.98 10.5749C1357.98 9.9249 1358.19 9.40924 1358.62 9.0279C1359.05 8.6379 1359.63 8.4429 1360.35 8.4429C1360.88 8.4429 1361.34 8.56424 1361.75 8.8069C1362.17 9.0409 1362.46 9.36157 1362.64 9.7689L1362.67 9.7429C1362.63 9.59557 1362.61 9.2489 1362.61 8.7029C1362.6 7.55024 1362.01 6.9739 1360.83 6.9739C1360.24 6.9739 1359.57 7.09524 1358.81 7.3379L1358.62 6.6879C1359.45 6.44524 1360.19 6.3239 1360.84 6.3239ZM1360.46 9.0539C1359.93 9.0539 1359.5 9.1969 1359.18 9.4829C1358.86 9.76024 1358.7 10.1329 1358.7 10.6009C1358.7 11.0516 1358.86 11.4156 1359.18 11.6929C1359.5 11.9702 1359.93 12.1089 1360.46 12.1089C1361.03 12.1089 1361.5 11.9616 1361.89 11.6669C1362.28 11.3722 1362.48 11.0126 1362.48 10.5879C1362.48 10.1546 1362.28 9.79057 1361.89 9.4959C1361.5 9.20124 1361.03 9.0539 1360.46 9.0539Z" fill="#2B2B2A"/>
<path d="M1393.15 3.4249L1389.16 12.6549H1389.03L1385.03 3.4249H1386.4L1388.61 8.8719C1388.8 9.34857 1388.96 9.8989 1389.07 10.5229H1389.12C1389.21 9.95957 1389.36 9.40924 1389.58 8.8719L1391.79 3.4249H1393.15Z" fill="#2B2B2A"/>
<path d="M1401.7 6.28168C1401.27 6.76219 1401.03 7.38261 1401.03 8.02536C1401.03 8.66812 1401.27 9.28854 1401.7 9.76905" stroke="black" stroke-width="1.00189" stroke-linecap="round" stroke-linejoin="round"/>
<path d="M1404.34 9.76905C1404.76 9.28854 1405 8.66812 1405 8.02536C1405 7.38261 1404.76 6.76219 1404.34 6.28168" stroke="black" stroke-width="1.00189" stroke-linecap="round" stroke-linejoin="round"/>
<path d="M1400.3 4.88806C1399.51 5.73896 1399.06 6.86021 1399.06 8.02494C1399.06 9.18967 1399.51 10.3109 1400.3 11.1618" stroke="black" stroke-width="1.00189" stroke-linecap="round" stroke-linejoin="round"/>
<path d="M1405.73 11.1618C1406.52 10.3109 1406.97 9.18967 1406.97 8.02494C1406.97 6.86021 1406.52 5.73896 1405.73 4.88806" stroke="black" stroke-width="1.00189" stroke-linecap="round" stroke-linejoin="round"/>
<path d="M1407.27 12.3994C1408.34 11.1953 1408.93 9.638 1408.93 8.02435C1408.93 6.4107 1408.34 4.85346 1407.27 3.64935" stroke="black" stroke-width="1.00189" stroke-linecap="round" stroke-linejoin="round"/>
<path d="M1398.76 3.64935C1397.69 4.85346 1397.09 6.4107 1397.09 8.02435C1397.09 9.638 1397.69 11.1953 1398.76 12.3994" stroke="black" stroke-width="1.00189" stroke-linecap="round" stroke-linejoin="round"/>
<path d="M1419.08 12.5249V3.4249H1422.24C1423.02 3.4249 1423.63 3.62424 1424.08 4.0229C1424.53 4.4129 1424.76 4.95024 1424.76 5.6349C1424.76 6.51024 1424.38 7.12557 1423.62 7.4809C1423.36 7.57624 1423.08 7.64124 1422.8 7.6759V7.7279C1423.07 7.7279 1423.35 7.75824 1423.63 7.8189C1424.18 7.95757 1424.61 8.21757 1424.9 8.5989C1425.2 8.97157 1425.34 9.44824 1425.34 10.0289C1425.34 10.8089 1425.08 11.4199 1424.55 11.8619C1424.03 12.3039 1423.3 12.5249 1422.37 12.5249H1419.08ZM1419.77 7.4549C1419.81 7.43757 1419.92 7.4289 1420.11 7.4289H1421.86C1422.55 7.4289 1423.07 7.27724 1423.45 6.9739C1423.82 6.6619 1424.01 6.22857 1424.01 5.6739C1424.01 5.16257 1423.85 4.77257 1423.54 4.5039C1423.23 4.23524 1422.78 4.1009 1422.19 4.1009H1420.11C1419.92 4.1009 1419.81 4.09224 1419.77 4.0749L1419.76 4.0879C1419.78 4.1659 1419.79 4.2699 1419.79 4.3999V7.1299C1419.79 7.2599 1419.78 7.3639 1419.76 7.4419L1419.77 7.4549ZM1419.77 11.8749C1419.81 11.8576 1419.92 11.8489 1420.11 11.8489H1422.32C1423.82 11.8489 1424.58 11.2336 1424.58 10.0029C1424.58 8.72024 1423.76 8.0789 1422.13 8.0789H1420.11C1419.92 8.0789 1419.81 8.0659 1419.77 8.0399L1419.76 8.0659C1419.78 8.12657 1419.79 8.23057 1419.79 8.3779V11.5499C1419.79 11.6799 1419.78 11.7839 1419.76 11.8619L1419.77 11.8749ZM1427.02 12.6419V6.5189H1427.67V9.8339C1427.67 10.4319 1427.65 10.9476 1427.61 11.3809L1427.65 11.3939C1427.78 11.1252 1428 10.8089 1428.32 10.4449L1432 6.4019H1432.15V12.5249H1431.5V9.2099C1431.5 8.6119 1431.52 8.09624 1431.56 7.6629L1431.52 7.6499C1431.39 7.91857 1431.17 8.2349 1430.85 8.5989L1427.17 12.6419H1427.02ZM1436.96 12.7199C1435.94 12.7199 1435.13 12.3862 1434.52 11.7189C1433.93 11.0516 1433.63 10.0549 1433.63 8.7289C1433.63 6.81357 1434.2 5.54824 1435.36 4.9329C1435.59 4.81157 1435.87 4.6989 1436.2 4.5949C1436.54 4.4909 1436.93 4.3869 1437.37 4.2829C1437.82 4.1789 1438.06 4.12257 1438.09 4.1139C1438.56 3.96657 1438.82 3.71524 1438.87 3.3599H1439.52C1439.52 4.0359 1439.12 4.47357 1438.33 4.6729C1438.32 4.68157 1438.07 4.7379 1437.61 4.8419C1437.15 4.93724 1436.77 5.03257 1436.46 5.1279C1436.16 5.21457 1435.9 5.31424 1435.69 5.4269C1434.74 5.92957 1434.23 7.0909 1434.16 8.9109H1434.21C1434.31 8.09624 1434.62 7.4809 1435.16 7.0649C1435.71 6.64024 1436.38 6.4279 1437.16 6.4279C1438.07 6.41924 1438.8 6.69657 1439.35 7.2599C1439.9 7.82324 1440.18 8.5729 1440.18 9.5089C1440.18 10.4622 1439.89 11.2379 1439.3 11.8359C1438.71 12.4252 1437.93 12.7199 1436.96 12.7199ZM1436.98 12.0699C1437.72 12.0699 1438.32 11.8402 1438.79 11.3809C1439.26 10.9216 1439.49 10.3106 1439.49 9.5479C1439.49 8.7679 1439.25 8.1569 1438.78 7.7149C1438.3 7.2729 1437.71 7.0519 1436.99 7.0519C1436.26 7.0519 1435.64 7.27724 1435.14 7.7279C1434.64 8.17857 1434.39 8.7809 1434.39 9.5349C1434.39 10.3062 1434.64 10.9216 1435.12 11.3809C1435.62 11.8402 1436.24 12.0699 1436.98 12.0699ZM1444.94 6.3239C1445.83 6.3239 1446.55 6.6229 1447.11 7.2209C1447.67 7.81024 1447.95 8.57724 1447.95 9.5219C1447.95 10.4666 1447.67 11.2379 1447.11 11.8359C1446.55 12.4252 1445.83 12.7199 1444.94 12.7199C1443.63 12.7199 1442.73 12.1176 1442.25 10.9129L1442.19 10.9259C1442.28 11.2726 1442.32 11.6972 1442.32 12.1999V15.1249H1441.67V6.5189H1442.31C1442.31 7.29024 1442.28 7.84057 1442.22 8.1699L1442.26 8.1829C1442.48 7.59357 1442.83 7.13857 1443.29 6.8179C1443.75 6.48857 1444.3 6.3239 1444.94 6.3239ZM1444.85 6.9869C1444.08 6.9869 1443.46 7.22524 1442.99 7.7019C1442.51 8.1699 1442.27 8.77657 1442.27 9.5219C1442.27 10.2759 1442.51 10.8869 1443 11.3549C1443.48 11.8229 1444.11 12.0569 1444.88 12.0569C1445.6 12.0569 1446.17 11.8272 1446.6 11.3679C1447.03 10.9086 1447.25 10.2976 1447.25 9.5349C1447.25 8.76357 1447.03 8.14824 1446.59 7.6889C1446.15 7.2209 1445.57 6.9869 1444.85 6.9869ZM1451.76 6.3239C1452.58 6.3239 1453.19 6.51457 1453.58 6.8959C1453.97 7.27724 1454.16 7.86657 1454.16 8.6639V12.5249H1453.51C1453.51 12.1869 1453.54 11.7926 1453.59 11.3419L1453.57 11.3289C1453.37 11.7622 1453.07 12.1046 1452.66 12.3559C1452.24 12.5986 1451.77 12.7199 1451.24 12.7199C1450.54 12.7199 1449.97 12.5249 1449.54 12.1349C1449.11 11.7362 1448.9 11.2162 1448.9 10.5749C1448.9 9.9249 1449.11 9.40924 1449.54 9.0279C1449.97 8.6379 1450.54 8.4429 1451.26 8.4429C1451.79 8.4429 1452.26 8.56424 1452.67 8.8069C1453.08 9.0409 1453.38 9.36157 1453.55 9.7689L1453.59 9.7429C1453.55 9.59557 1453.53 9.2489 1453.53 8.7029C1453.52 7.55024 1452.92 6.9739 1451.75 6.9739C1451.16 6.9739 1450.48 7.09524 1449.73 7.3379L1449.54 6.6879C1450.37 6.44524 1451.11 6.3239 1451.76 6.3239ZM1451.38 9.0539C1450.84 9.0539 1450.41 9.1969 1450.09 9.4829C1449.77 9.76024 1449.61 10.1329 1449.61 10.6009C1449.61 11.0516 1449.77 11.4156 1450.09 11.6929C1450.41 11.9702 1450.84 12.1089 1451.38 12.1089C1451.94 12.1089 1452.42 11.9616 1452.81 11.6669C1453.2 11.3722 1453.4 11.0126 1453.4 10.5879C1453.4 10.1546 1453.2 9.79057 1452.81 9.4959C1452.42 9.20124 1451.94 9.0539 1451.38 9.0539ZM1460.82 14.3449V12.8239C1460.82 12.6852 1460.84 12.5726 1460.88 12.4859L1460.87 12.4729C1460.8 12.5076 1460.68 12.5249 1460.5 12.5249H1455.99V6.5189H1456.64V11.6149C1456.64 11.7536 1456.62 11.8662 1456.58 11.9529L1456.59 11.9659C1456.66 11.9312 1456.78 11.9139 1456.96 11.9139H1459.83C1460 11.9139 1460.12 11.9312 1460.19 11.9659L1460.21 11.9529C1460.16 11.8662 1460.14 11.7536 1460.14 11.6149V6.5189H1460.8V11.6149C1460.8 11.7536 1460.78 11.8662 1460.74 11.9529L1460.75 11.9659C1460.82 11.9312 1460.94 11.9139 1461.12 11.9139H1461.45V14.3449H1460.82ZM1462.81 12.6419V6.5189H1463.46V9.8339C1463.46 10.4319 1463.44 10.9476 1463.4 11.3809L1463.44 11.3939C1463.57 11.1252 1463.79 10.8089 1464.11 10.4449L1467.79 6.4019H1467.93V12.5249H1467.28V9.2099C1467.28 8.6119 1467.3 8.09624 1467.35 7.6629L1467.31 7.6499C1467.18 7.91857 1466.95 8.2349 1466.63 8.5989L1462.95 12.6419H1462.81ZM1474.03 6.5189V12.5249H1473.38V10.3149C1473.38 10.1502 1473.4 10.0332 1473.43 9.9639L1473.42 9.9509C1473.33 9.99424 1473.22 10.0159 1473.07 10.0159H1472.2L1469.92 12.5249H1469.08V12.4989L1470.95 10.4579C1471.16 10.2412 1471.35 10.0766 1471.53 9.9639L1471.52 9.9379C1471.43 9.98124 1471.27 10.0029 1471.05 10.0029C1470.63 9.98557 1470.26 9.82524 1469.95 9.5219C1469.64 9.21857 1469.48 8.80257 1469.48 8.2739C1469.48 7.7019 1469.66 7.26857 1470.03 6.9739C1470.39 6.67057 1470.87 6.5189 1471.46 6.5189H1474.03ZM1473.43 9.4569C1473.4 9.38757 1473.38 9.27057 1473.38 9.1059V7.4289C1473.38 7.29024 1473.4 7.17757 1473.45 7.0909L1473.43 7.0779C1473.34 7.11257 1473.22 7.1299 1473.07 7.1299H1471.52C1471.1 7.1299 1470.76 7.22957 1470.52 7.4289C1470.29 7.62824 1470.17 7.9099 1470.17 8.2739C1470.17 8.62924 1470.28 8.9109 1470.49 9.1189C1470.72 9.31824 1471.03 9.4179 1471.43 9.4179H1473.07C1473.21 9.4179 1473.32 9.43524 1473.42 9.4699L1473.43 9.4569Z" fill="#2B2B2A"/>
<path d="M1497.17 3.4249V11.1079C1497.17 11.2552 1497.16 11.3592 1497.13 11.4199L1497.16 11.4459C1497.22 11.4199 1497.33 11.4069 1497.48 11.4069H1501.23V12.5249H1496V3.4249H1497.17Z" fill="#2B2B2A"/>
<path d="M1512.94 9.77476C1512.94 12.1911 1511.42 13.7123 1509 13.7123C1506.58 13.7123 1505.06 12.1911 1505.06 9.77476C1505.06 7.18175 1507.88 3.6812 1508.75 2.66866C1508.78 2.63269 1508.82 2.60381 1508.86 2.58401C1508.91 2.56421 1508.95 2.55396 1509 2.55396C1509.05 2.55396 1509.09 2.56421 1509.14 2.58401C1509.18 2.60381 1509.22 2.63269 1509.25 2.66866C1510.11 3.6812 1512.94 7.18175 1512.94 9.77476Z" stroke="black" stroke-width="1.00189" stroke-miterlimit="10"/>
<path d="M1511.41 9.9931C1511.41 10.5156 1511.2 11.0168 1510.83 11.3862C1510.46 11.7557 1509.96 11.9633 1509.44 11.9633" stroke="black" stroke-width="1.00189" stroke-linecap="round" stroke-linejoin="round"/>
<path d="M1526.04 12.6029C1525.78 12.6029 1525.48 12.5726 1525.13 12.5119V11.8359C1525.45 11.8966 1525.76 11.9269 1526.07 11.9269C1526.39 11.9269 1526.68 11.8186 1526.94 11.6019C1527.21 11.3852 1527.47 10.9432 1527.73 10.2759L1524.17 3.4249H1525.01L1527.59 8.4429C1527.8 8.8589 1527.93 9.1189 1527.98 9.2229C1528.02 9.3269 1528.06 9.50024 1528.11 9.7429L1528.15 9.7299C1528.19 9.37457 1528.33 8.93257 1528.58 8.4039L1530.94 3.4249H1531.75L1528.32 10.6529C1528 11.4156 1527.66 11.9312 1527.29 12.1999C1526.93 12.4686 1526.51 12.6029 1526.04 12.6029ZM1535.45 6.3239C1536.34 6.3239 1537.06 6.6229 1537.62 7.2209C1538.18 7.81024 1538.46 8.57724 1538.46 9.5219C1538.46 10.4666 1538.18 11.2379 1537.62 11.8359C1537.06 12.4252 1536.34 12.7199 1535.45 12.7199C1534.14 12.7199 1533.24 12.1176 1532.76 10.9129L1532.71 10.9259C1532.79 11.2726 1532.84 11.6972 1532.84 12.1999V15.1249H1532.19V6.5189H1532.82C1532.82 7.29024 1532.79 7.84057 1532.73 8.1699L1532.77 8.1829C1533 7.59357 1533.34 7.13857 1533.8 6.8179C1534.27 6.48857 1534.82 6.3239 1535.45 6.3239ZM1535.36 6.9869C1534.59 6.9869 1533.97 7.22524 1533.5 7.7019C1533.02 8.1699 1532.78 8.77657 1532.78 9.5219C1532.78 10.2759 1533.03 10.8869 1533.51 11.3549C1534 11.8229 1534.62 12.0569 1535.4 12.0569C1536.11 12.0569 1536.68 11.8272 1537.11 11.3679C1537.55 10.9086 1537.76 10.2976 1537.76 9.5349C1537.76 8.76357 1537.54 8.14824 1537.1 7.6889C1536.67 7.2209 1536.09 6.9869 1535.36 6.9869ZM1542.75 6.3239C1543.69 6.3239 1544.47 6.6229 1545.06 7.2209C1545.67 7.8189 1545.97 8.5859 1545.97 9.5219C1545.97 10.4492 1545.67 11.2162 1545.06 11.8229C1544.47 12.4209 1543.69 12.7199 1542.75 12.7199C1541.81 12.7199 1541.04 12.4209 1540.44 11.8229C1539.83 11.2162 1539.53 10.4492 1539.53 9.5219C1539.53 8.5859 1539.83 7.8189 1540.44 7.2209C1541.04 6.6229 1541.81 6.3239 1542.75 6.3239ZM1544.56 7.6889C1544.09 7.21224 1543.49 6.9739 1542.75 6.9739C1542.01 6.9739 1541.41 7.21224 1540.93 7.6889C1540.46 8.16557 1540.23 8.77657 1540.23 9.5219C1540.23 10.2672 1540.46 10.8782 1540.93 11.3549C1541.41 11.8316 1542.01 12.0699 1542.75 12.0699C1543.49 12.0699 1544.09 11.8316 1544.56 11.3549C1545.03 10.8782 1545.27 10.2672 1545.27 9.5219C1545.27 8.77657 1545.03 8.16557 1544.56 7.6889ZM1551.34 9.5609C1551.93 9.75157 1552.22 10.1936 1552.22 10.8869C1552.22 11.4156 1552.04 11.8229 1551.7 12.1089C1551.35 12.3862 1550.89 12.5249 1550.32 12.5249H1547.46V6.5189H1550.3C1550.87 6.5189 1551.3 6.6489 1551.6 6.9089C1551.92 7.1689 1552.07 7.5329 1552.07 8.0009C1552.07 8.59024 1551.83 9.0019 1551.36 9.2359C1551.15 9.33124 1550.89 9.38757 1550.58 9.4049V9.4569C1550.86 9.4569 1551.11 9.49157 1551.34 9.5609ZM1548.04 7.0909C1548.09 7.1689 1548.11 7.28157 1548.11 7.4289V8.8589C1548.11 9.03224 1548.09 9.15357 1548.06 9.2229L1548.07 9.2359C1548.15 9.19257 1548.26 9.1709 1548.41 9.1709H1549.9C1550.4 9.1709 1550.76 9.07557 1550.99 8.8849C1551.24 8.68557 1551.36 8.42124 1551.36 8.0919C1551.36 7.45057 1550.95 7.1299 1550.15 7.1299H1548.42C1548.25 7.1299 1548.13 7.11257 1548.06 7.0779L1548.04 7.0909ZM1550.2 11.9139C1551.07 11.9139 1551.5 11.5499 1551.5 10.8219C1551.5 10.1026 1551 9.7429 1550.01 9.7429H1548.41C1548.26 9.7429 1548.15 9.72124 1548.07 9.6779L1548.06 9.6909C1548.09 9.76024 1548.11 9.87724 1548.11 10.0419V11.6149C1548.11 11.7536 1548.09 11.8662 1548.04 11.9529L1548.06 11.9659C1548.13 11.9312 1548.25 11.9139 1548.42 11.9139H1550.2ZM1556.36 6.3239C1557.23 6.3239 1557.92 6.60557 1558.44 7.1689C1558.96 7.73224 1559.22 8.49057 1559.22 9.4439V9.5999H1554.51C1554.23 9.5999 1554.05 9.57824 1553.96 9.5349L1553.95 9.5479L1553.98 9.6649C1553.99 10.4016 1554.21 10.9909 1554.65 11.4329C1555.09 11.8662 1555.68 12.0829 1556.41 12.0829C1556.86 12.0829 1557.26 11.9919 1557.6 11.8099C1557.96 11.6192 1558.3 11.3116 1558.63 10.8869L1559.1 11.3159C1558.41 12.2519 1557.51 12.7199 1556.39 12.7199C1555.45 12.7199 1554.7 12.4296 1554.13 11.8489C1553.57 11.2596 1553.29 10.4796 1553.29 9.5089C1553.29 8.53824 1553.57 7.7669 1554.12 7.1949C1554.68 6.61424 1555.43 6.3239 1556.36 6.3239ZM1556.34 6.9479C1555.67 6.9479 1555.12 7.1429 1554.69 7.5329C1554.28 7.9229 1554.04 8.45157 1553.98 9.1189L1553.99 9.1319C1554.1 9.07124 1554.28 9.0409 1554.52 9.0409H1557.92C1558.15 9.0409 1558.34 9.0669 1558.5 9.1189L1558.51 9.1059C1558.46 8.42124 1558.25 7.89257 1557.86 7.5199C1557.49 7.13857 1556.98 6.9479 1556.34 6.9479ZM1565.21 6.5189H1565.87V12.5249H1565.21V9.9119C1565.21 9.7559 1565.23 9.63457 1565.27 9.5479L1565.26 9.5349C1565.18 9.57824 1565.06 9.5999 1564.91 9.5999H1561.66C1561.52 9.5999 1561.41 9.57824 1561.32 9.5349L1561.31 9.5479C1561.34 9.61724 1561.36 9.73857 1561.36 9.9119V12.5249H1560.71V6.5189H1561.36V8.6769C1561.36 8.85024 1561.34 8.97157 1561.31 9.0409L1561.32 9.0539C1561.41 9.01057 1561.52 8.9889 1561.66 8.9889H1564.91C1565.06 8.9889 1565.18 9.01057 1565.26 9.0539L1565.27 9.0409C1565.23 8.95424 1565.21 8.8329 1565.21 8.6769V6.5189ZM1570.37 8.7809C1570.99 8.7809 1571.48 8.9499 1571.84 9.2879C1572.21 9.61724 1572.4 10.0722 1572.4 10.6529C1572.4 11.2249 1572.21 11.6799 1571.84 12.0179C1571.47 12.3559 1570.98 12.5249 1570.37 12.5249H1567.77V6.5189H1568.42V8.4819C1568.42 8.64657 1568.4 8.76357 1568.37 8.8329L1568.38 8.8459C1568.46 8.80257 1568.57 8.7809 1568.72 8.7809H1570.37ZM1570.34 11.9139C1570.77 11.9139 1571.1 11.8012 1571.33 11.5759C1571.57 11.3419 1571.7 11.0342 1571.7 10.6529C1571.7 10.2716 1571.58 9.96824 1571.35 9.7429C1571.11 9.51757 1570.78 9.4049 1570.34 9.4049H1568.72C1568.57 9.4049 1568.46 9.38324 1568.38 9.3399L1568.37 9.3529C1568.4 9.42224 1568.42 9.54357 1568.42 9.7169V11.6149C1568.42 11.7536 1568.4 11.8662 1568.36 11.9529L1568.37 11.9659C1568.44 11.9312 1568.56 11.9139 1568.73 11.9139H1570.34ZM1580.91 12.6289L1579.45 9.1059C1579.3 8.72457 1579.16 8.30424 1579.05 7.8449H1579.01C1579 8.16557 1578.91 8.59024 1578.75 9.1189L1577.66 12.5249H1576.94L1578.93 6.4019H1579.05L1580.63 10.3149C1580.81 10.7742 1580.92 11.1339 1580.96 11.3939H1580.99C1581.03 11.1339 1581.14 10.7742 1581.31 10.3149L1582.9 6.4019H1583.01L1585 12.5249H1584.29L1583.2 9.1189C1583.03 8.59024 1582.94 8.16557 1582.94 7.8449H1582.9C1582.78 8.30424 1582.65 8.72457 1582.49 9.1059L1581.04 12.6289H1580.91ZM1588.29 6.3239C1589.11 6.3239 1589.72 6.51457 1590.11 6.8959C1590.5 7.27724 1590.7 7.86657 1590.7 8.6639V12.5249H1590.05C1590.05 12.1869 1590.07 11.7926 1590.12 11.3419L1590.1 11.3289C1589.91 11.7622 1589.6 12.1046 1589.19 12.3559C1588.77 12.5986 1588.3 12.7199 1587.77 12.7199C1587.07 12.7199 1586.5 12.5249 1586.07 12.1349C1585.64 11.7362 1585.43 11.2162 1585.43 10.5749C1585.43 9.9249 1585.64 9.40924 1586.07 9.0279C1586.5 8.6379 1587.08 8.4429 1587.8 8.4429C1588.32 8.4429 1588.79 8.56424 1589.2 8.8069C1589.62 9.0409 1589.91 9.36157 1590.08 9.7689L1590.12 9.7429C1590.08 9.59557 1590.06 9.2489 1590.06 8.7029C1590.05 7.55024 1589.46 6.9739 1588.28 6.9739C1587.69 6.9739 1587.02 7.09524 1586.26 7.3379L1586.07 6.6879C1586.9 6.44524 1587.64 6.3239 1588.29 6.3239ZM1587.91 9.0539C1587.38 9.0539 1586.95 9.1969 1586.63 9.4829C1586.31 9.76024 1586.15 10.1329 1586.15 10.6009C1586.15 11.0516 1586.31 11.4156 1586.63 11.6929C1586.95 11.9702 1587.38 12.1089 1587.91 12.1089C1588.48 12.1089 1588.95 11.9616 1589.34 11.6669C1589.73 11.3722 1589.93 11.0126 1589.93 10.5879C1589.93 10.1546 1589.73 9.79057 1589.34 9.4959C1588.95 9.20124 1588.48 9.0539 1587.91 9.0539ZM1595.35 12.7199C1594.39 12.7199 1593.61 12.4252 1593.01 11.8359C1592.41 11.2466 1592.11 10.4752 1592.11 9.5219C1592.11 8.56857 1592.41 7.79724 1593.01 7.2079C1593.61 6.61857 1594.39 6.3239 1595.35 6.3239C1596.09 6.3239 1596.77 6.5189 1597.39 6.9089L1597.06 7.4939C1596.49 7.14724 1595.91 6.9739 1595.32 6.9739C1594.59 6.9739 1593.99 7.21657 1593.51 7.7019C1593.05 8.17857 1592.81 8.78524 1592.81 9.5219C1592.81 10.2586 1593.05 10.8696 1593.51 11.3549C1593.99 11.8316 1594.59 12.0699 1595.32 12.0699C1595.91 12.0699 1596.49 11.8966 1597.06 11.5499L1597.39 12.1349C1596.77 12.5249 1596.09 12.7199 1595.35 12.7199ZM1603.75 6.5189V12.5249H1603.09V7.4289C1603.09 7.29024 1603.11 7.17757 1603.15 7.0909L1603.14 7.0779C1603.08 7.11257 1602.96 7.1299 1602.78 7.1299H1600.29C1600.12 7.1299 1600 7.11257 1599.93 7.0779L1599.92 7.0909C1599.96 7.17757 1599.98 7.29024 1599.98 7.4289V10.9779C1599.98 12.0266 1599.51 12.5509 1598.56 12.5509H1598.01V11.9399H1598.55C1599.07 11.9399 1599.33 11.6149 1599.33 10.9649V6.5189H1603.75ZM1607.93 6.3239C1608.75 6.3239 1609.36 6.51457 1609.75 6.8959C1610.14 7.27724 1610.33 7.86657 1610.33 8.6639V12.5249H1609.68C1609.68 12.1869 1609.71 11.7926 1609.76 11.3419L1609.74 11.3289C1609.55 11.7622 1609.24 12.1046 1608.83 12.3559C1608.41 12.5986 1607.94 12.7199 1607.41 12.7199C1606.71 12.7199 1606.14 12.5249 1605.71 12.1349C1605.28 11.7362 1605.07 11.2162 1605.07 10.5749C1605.07 9.9249 1605.28 9.40924 1605.71 9.0279C1606.14 8.6379 1606.72 8.4429 1607.44 8.4429C1607.96 8.4429 1608.43 8.56424 1608.84 8.8069C1609.26 9.0409 1609.55 9.36157 1609.72 9.7689L1609.76 9.7429C1609.72 9.59557 1609.7 9.2489 1609.7 8.7029C1609.69 7.55024 1609.1 6.9739 1607.92 6.9739C1607.33 6.9739 1606.66 7.09524 1605.9 7.3379L1605.71 6.6879C1606.54 6.44524 1607.28 6.3239 1607.93 6.3239ZM1607.55 9.0539C1607.02 9.0539 1606.59 9.1969 1606.27 9.4829C1605.95 9.76024 1605.78 10.1329 1605.78 10.6009C1605.78 11.0516 1605.95 11.4156 1606.27 11.6929C1606.59 11.9702 1607.02 12.1089 1607.55 12.1089C1608.12 12.1089 1608.59 11.9616 1608.98 11.6669C1609.37 11.3722 1609.57 11.0126 1609.57 10.5879C1609.57 10.1546 1609.37 9.79057 1608.98 9.4959C1608.59 9.20124 1608.12 9.0539 1607.55 9.0539Z" fill="#2B2B2A"/>
<rect x="1632" y="2.0249" width="12" height="12" rx="2" fill="#F9A823"/>
<path d="M1660.02 3.4249V12.5249H1659.31V4.3999C1659.31 4.2699 1659.32 4.1659 1659.34 4.0879L1659.33 4.0749C1659.27 4.09224 1659.16 4.1009 1658.99 4.1009H1654.11C1653.93 4.1009 1653.82 4.09224 1653.77 4.0749L1653.76 4.0879C1653.78 4.1659 1653.79 4.2699 1653.79 4.3999V12.5249H1653.08V3.4249H1660.02ZM1665.31 6.3239C1666.21 6.3239 1666.93 6.6229 1667.49 7.2209C1668.05 7.81024 1668.33 8.57724 1668.33 9.5219C1668.33 10.4666 1668.05 11.2379 1667.49 11.8359C1666.93 12.4252 1666.21 12.7199 1665.31 12.7199C1664.01 12.7199 1663.11 12.1176 1662.62 10.9129L1662.57 10.9259C1662.66 11.2726 1662.7 11.6972 1662.7 12.1999V15.1249H1662.05V6.5189H1662.69C1662.69 7.29024 1662.66 7.84057 1662.6 8.1699L1662.64 8.1829C1662.86 7.59357 1663.2 7.13857 1663.66 6.8179C1664.13 6.48857 1664.68 6.3239 1665.31 6.3239ZM1665.22 6.9869C1664.46 6.9869 1663.84 7.22524 1663.36 7.7019C1662.89 8.1699 1662.65 8.77657 1662.65 9.5219C1662.65 10.2759 1662.89 10.8869 1663.38 11.3549C1663.86 11.8229 1664.49 12.0569 1665.26 12.0569C1665.97 12.0569 1666.55 11.8272 1666.98 11.3679C1667.41 10.9086 1667.63 10.2976 1667.63 9.5349C1667.63 8.76357 1667.41 8.14824 1666.97 7.6889C1666.53 7.2209 1665.95 6.9869 1665.22 6.9869ZM1672.46 6.3239C1673.34 6.3239 1674.03 6.60557 1674.54 7.1689C1675.06 7.73224 1675.32 8.49057 1675.32 9.4439V9.5999H1670.61C1670.34 9.5999 1670.16 9.57824 1670.07 9.5349L1670.06 9.5479L1670.08 9.6649C1670.09 10.4016 1670.32 10.9909 1670.76 11.4329C1671.2 11.8662 1671.78 12.0829 1672.51 12.0829C1672.96 12.0829 1673.36 11.9919 1673.71 11.8099C1674.06 11.6192 1674.41 11.3116 1674.74 10.8869L1675.2 11.3159C1674.52 12.2519 1673.62 12.7199 1672.5 12.7199C1671.55 12.7199 1670.8 12.4296 1670.24 11.8489C1669.67 11.2596 1669.39 10.4796 1669.39 9.5089C1669.39 8.53824 1669.67 7.7669 1670.22 7.1949C1670.79 6.61424 1671.53 6.3239 1672.46 6.3239ZM1672.45 6.9479C1671.77 6.9479 1671.22 7.1429 1670.8 7.5329C1670.38 7.9229 1670.14 8.45157 1670.08 9.1189L1670.09 9.1319C1670.21 9.07124 1670.38 9.0409 1670.63 9.0409H1674.02C1674.25 9.0409 1674.45 9.0669 1674.61 9.1189L1674.62 9.1059C1674.57 8.42124 1674.35 7.89257 1673.97 7.5199C1673.6 7.13857 1673.09 6.9479 1672.45 6.9479ZM1675.67 14.3449V11.9139H1676.1C1676.24 11.9139 1676.34 11.9312 1676.4 11.9659L1676.41 11.9529C1676.39 11.8576 1676.42 11.7536 1676.49 11.6409C1677.15 10.4796 1677.48 9.1839 1677.48 7.7539V6.5189H1681.26V11.6149C1681.26 11.7536 1681.24 11.8662 1681.19 11.9529L1681.21 11.9659C1681.28 11.9312 1681.4 11.9139 1681.57 11.9139H1681.9V14.3449H1681.27V12.8239C1681.27 12.6852 1681.29 12.5726 1681.34 12.4859L1681.32 12.4729C1681.26 12.5076 1681.13 12.5249 1680.96 12.5249H1676.61C1676.43 12.5249 1676.31 12.5076 1676.24 12.4729L1676.23 12.4859C1676.27 12.5726 1676.29 12.6852 1676.29 12.8239V14.3449H1675.67ZM1677.01 11.9659C1677.08 11.9312 1677.2 11.9139 1677.39 11.9139H1680.31C1680.49 11.9139 1680.61 11.9312 1680.67 11.9659L1680.69 11.9529C1680.64 11.8662 1680.62 11.7536 1680.62 11.6149V7.4289C1680.62 7.29024 1680.64 7.17757 1680.69 7.0909L1680.67 7.0779C1680.6 7.11257 1680.48 7.1299 1680.31 7.1299H1678.43C1678.28 7.1299 1678.16 7.11257 1678.06 7.0779L1678.05 7.0909C1678.09 7.17757 1678.11 7.29024 1678.11 7.4289V8.0659C1678.11 8.75924 1678 9.50024 1677.76 10.2889C1677.54 11.0689 1677.28 11.6236 1677 11.9529L1677.01 11.9659ZM1687.99 6.5189L1684.21 15.1249H1683.52L1684.84 12.0829L1682.22 6.5189H1682.98L1684.73 10.3409C1684.98 10.8782 1685.12 11.3029 1685.16 11.6149H1685.21C1685.24 11.3029 1685.38 10.8826 1685.61 10.3539L1687.27 6.5189H1687.99ZM1693.96 6.5189V12.5249H1693.29V7.4289C1693.29 7.29024 1693.32 7.17757 1693.36 7.0909L1693.35 7.0779C1693.28 7.11257 1693.15 7.1299 1692.98 7.1299H1689.91C1689.74 7.1299 1689.62 7.11257 1689.55 7.0779L1689.54 7.0909C1689.58 7.17757 1689.6 7.29024 1689.6 7.4289V12.5249H1688.95V6.5189H1693.96ZM1699.03 6.3239C1699.93 6.3239 1700.65 6.6229 1701.2 7.2209C1701.77 7.81024 1702.05 8.57724 1702.05 9.5219C1702.05 10.4666 1701.77 11.2379 1701.2 11.8359C1700.65 12.4252 1699.93 12.7199 1699.03 12.7199C1697.72 12.7199 1696.83 12.1176 1696.34 10.9129L1696.29 10.9259C1696.38 11.2726 1696.42 11.6972 1696.42 12.1999V15.1249H1695.77V6.5189H1696.41C1696.41 7.29024 1696.38 7.84057 1696.32 8.1699L1696.36 8.1829C1696.58 7.59357 1696.92 7.13857 1697.38 6.8179C1697.85 6.48857 1698.4 6.3239 1699.03 6.3239ZM1698.94 6.9869C1698.18 6.9869 1697.56 7.22524 1697.08 7.7019C1696.61 8.1699 1696.37 8.77657 1696.37 9.5219C1696.37 10.2759 1696.61 10.8869 1697.1 11.3549C1697.58 11.8229 1698.21 12.0569 1698.98 12.0569C1699.69 12.0569 1700.26 11.8272 1700.7 11.3679C1701.13 10.9086 1701.35 10.2976 1701.35 9.5349C1701.35 8.76357 1701.13 8.14824 1700.68 7.6889C1700.25 7.2209 1699.67 6.9869 1698.94 6.9869ZM1706.18 6.3239C1707.05 6.3239 1707.75 6.60557 1708.26 7.1689C1708.78 7.73224 1709.04 8.49057 1709.04 9.4439V9.5999H1704.33C1704.06 9.5999 1703.87 9.57824 1703.79 9.5349L1703.77 9.5479L1703.8 9.6649C1703.81 10.4016 1704.03 10.9909 1704.48 11.4329C1704.92 11.8662 1705.5 12.0829 1706.23 12.0829C1706.68 12.0829 1707.08 11.9919 1707.43 11.8099C1707.78 11.6192 1708.12 11.3116 1708.45 10.8869L1708.92 11.3159C1708.24 12.2519 1707.34 12.7199 1706.22 12.7199C1705.27 12.7199 1704.52 12.4296 1703.96 11.8489C1703.39 11.2596 1703.11 10.4796 1703.11 9.5089C1703.11 8.53824 1703.39 7.7669 1703.94 7.1949C1704.51 6.61424 1705.25 6.3239 1706.18 6.3239ZM1706.17 6.9479C1705.49 6.9479 1704.94 7.1429 1704.52 7.5329C1704.1 7.9229 1703.86 8.45157 1703.8 9.1189L1703.81 9.1319C1703.93 9.07124 1704.1 9.0409 1704.35 9.0409H1707.74C1707.97 9.0409 1708.17 9.0669 1708.32 9.1189L1708.34 9.1059C1708.29 8.42124 1708.07 7.89257 1707.69 7.5199C1707.31 7.13857 1706.81 6.9479 1706.17 6.9479ZM1709.39 12.5509V11.9529H1709.8C1710.16 11.9529 1710.4 11.7406 1710.53 11.3159L1710.86 10.1849C1710.94 9.90757 1711.08 9.71257 1711.27 9.5999C1711.46 9.47857 1711.73 9.40924 1712.08 9.3919V9.3659C1711.73 9.34857 1711.45 9.27924 1711.25 9.1579C1711.05 9.0279 1710.89 8.80257 1710.78 8.4819L1710.45 7.6239C1710.32 7.26857 1710.09 7.0909 1709.76 7.0909H1709.4V6.4929H1709.87C1710.41 6.4929 1710.77 6.73124 1710.97 7.2079L1711.38 8.2349C1711.5 8.55557 1711.64 8.7809 1711.79 8.9109C1711.96 9.0409 1712.18 9.1059 1712.47 9.1059H1712.79C1712.99 9.1059 1713.13 9.11457 1713.2 9.1319L1713.21 9.1189C1713.17 8.94557 1713.14 8.77224 1713.14 8.5989V6.5189H1713.77V8.5989C1713.77 8.81557 1713.75 8.9889 1713.7 9.1189L1713.72 9.1319C1713.8 9.11457 1713.94 9.1059 1714.12 9.1059H1714.46C1714.74 9.1059 1714.96 9.0409 1715.12 8.9109C1715.29 8.7809 1715.43 8.55557 1715.55 8.2349L1715.95 7.2079C1716.15 6.73124 1716.52 6.4929 1717.04 6.4929H1717.53V7.0909H1717.16C1716.83 7.0909 1716.6 7.26857 1716.46 7.6239L1716.15 8.4819C1716.03 8.80257 1715.87 9.0279 1715.67 9.1579C1715.47 9.27924 1715.19 9.34857 1714.85 9.3659V9.3919C1715.19 9.40924 1715.46 9.47857 1715.65 9.5999C1715.84 9.71257 1715.98 9.90757 1716.06 10.1849L1716.39 11.3159C1716.52 11.7406 1716.77 11.9529 1717.12 11.9529H1717.54V12.5509H1716.99C1716.38 12.5509 1715.98 12.2476 1715.81 11.6409L1715.5 10.5489C1715.33 9.96824 1714.99 9.6779 1714.46 9.6779H1714.12C1713.94 9.6779 1713.8 9.66924 1713.72 9.6519L1713.7 9.6649C1713.75 9.7949 1713.77 9.9769 1713.77 10.2109V12.5249H1713.14V10.2109C1713.14 10.0202 1713.17 9.83824 1713.21 9.6649L1713.2 9.6519C1713.13 9.66924 1712.99 9.6779 1712.79 9.6779H1712.47C1711.94 9.6779 1711.59 9.96824 1711.43 10.5489L1711.12 11.6409C1710.94 12.2476 1710.54 12.5509 1709.92 12.5509H1709.39ZM1717.98 14.3449V11.9139H1718.41C1718.55 11.9139 1718.65 11.9312 1718.71 11.9659L1718.72 11.9529C1718.71 11.8576 1718.73 11.7536 1718.8 11.6409C1719.46 10.4796 1719.79 9.1839 1719.79 7.7539V6.5189H1723.57V11.6149C1723.57 11.7536 1723.55 11.8662 1723.51 11.9529L1723.52 11.9659C1723.59 11.9312 1723.71 11.9139 1723.89 11.9139H1724.21V14.3449H1723.59V12.8239C1723.59 12.6852 1723.61 12.5726 1723.65 12.4859L1723.64 12.4729C1723.57 12.5076 1723.45 12.5249 1723.27 12.5249H1718.92C1718.75 12.5249 1718.62 12.5076 1718.56 12.4729L1718.54 12.4859C1718.59 12.5726 1718.61 12.6852 1718.61 12.8239V14.3449H1717.98ZM1719.32 11.9659C1719.39 11.9312 1719.52 11.9139 1719.7 11.9139H1722.62C1722.81 11.9139 1722.93 11.9312 1722.99 11.9659L1723 11.9529C1722.96 11.8662 1722.94 11.7536 1722.94 11.6149V7.4289C1722.94 7.29024 1722.96 7.17757 1723 7.0909L1722.99 7.0779C1722.91 7.11257 1722.79 7.1299 1722.62 7.1299H1720.74C1720.59 7.1299 1720.47 7.11257 1720.38 7.0779L1720.36 7.0909C1720.41 7.17757 1720.43 7.29024 1720.43 7.4289V8.0659C1720.43 8.75924 1720.31 9.50024 1720.08 10.2889C1719.85 11.0689 1719.6 11.6236 1719.31 11.9529L1719.32 11.9659ZM1727.93 6.3239C1728.8 6.3239 1729.49 6.60557 1730.01 7.1689C1730.53 7.73224 1730.79 8.49057 1730.79 9.4439V9.5999H1726.08C1725.8 9.5999 1725.62 9.57824 1725.53 9.5349L1725.52 9.5479L1725.55 9.6649C1725.56 10.4016 1725.78 10.9909 1726.22 11.4329C1726.67 11.8662 1727.25 12.0829 1727.98 12.0829C1728.43 12.0829 1728.83 11.9919 1729.17 11.8099C1729.53 11.6192 1729.87 11.3116 1730.2 10.8869L1730.67 11.3159C1729.98 12.2519 1729.08 12.7199 1727.97 12.7199C1727.02 12.7199 1726.27 12.4296 1725.7 11.8489C1725.14 11.2596 1724.86 10.4796 1724.86 9.5089C1724.86 8.53824 1725.14 7.7669 1725.69 7.1949C1726.25 6.61424 1727 6.3239 1727.93 6.3239ZM1727.91 6.9479C1727.24 6.9479 1726.69 7.1429 1726.26 7.5329C1725.85 7.9229 1725.61 8.45157 1725.55 9.1189L1725.56 9.1319C1725.67 9.07124 1725.85 9.0409 1726.09 9.0409H1729.49C1729.72 9.0409 1729.92 9.0669 1730.07 9.1189L1730.08 9.1059C1730.03 8.42124 1729.82 7.89257 1729.43 7.5199C1729.06 7.13857 1728.55 6.9479 1727.91 6.9479ZM1736.78 6.5189H1737.44V12.5249H1736.78V9.9119C1736.78 9.7559 1736.8 9.63457 1736.85 9.5479L1736.83 9.5349C1736.75 9.57824 1736.63 9.5999 1736.48 9.5999H1733.23C1733.09 9.5999 1732.98 9.57824 1732.89 9.5349L1732.88 9.5479C1732.91 9.61724 1732.93 9.73857 1732.93 9.9119V12.5249H1732.28V6.5189H1732.93V8.6769C1732.93 8.85024 1732.91 8.97157 1732.88 9.0409L1732.89 9.0539C1732.98 9.01057 1733.09 8.9889 1733.23 8.9889H1736.48C1736.63 8.9889 1736.75 9.01057 1736.83 9.0539L1736.85 9.0409C1736.8 8.95424 1736.78 8.8329 1736.78 8.6769V6.5189ZM1739.34 12.6419V6.5189H1739.99V9.8339C1739.99 10.4319 1739.97 10.9476 1739.93 11.3809L1739.96 11.3939C1740.09 11.1252 1740.32 10.8089 1740.64 10.4449L1744.32 6.4019H1744.46V12.5249H1743.81V9.2099C1743.81 8.6119 1743.83 8.09624 1743.88 7.6629L1743.84 7.6499C1743.71 7.91857 1743.48 8.2349 1743.16 8.5989L1739.48 12.6419H1739.34ZM1749.01 6.3239C1749.89 6.3239 1750.58 6.60557 1751.09 7.1689C1751.61 7.73224 1751.87 8.49057 1751.87 9.4439V9.5999H1747.17C1746.89 9.5999 1746.71 9.57824 1746.62 9.5349L1746.61 9.5479L1746.63 9.6649C1746.64 10.4016 1746.87 10.9909 1747.31 11.4329C1747.75 11.8662 1748.34 12.0829 1749.07 12.0829C1749.52 12.0829 1749.91 11.9919 1750.26 11.8099C1750.62 11.6192 1750.96 11.3116 1751.29 10.8869L1751.76 11.3159C1751.07 12.2519 1750.17 12.7199 1749.05 12.7199C1748.11 12.7199 1747.35 12.4296 1746.79 11.8489C1746.23 11.2596 1745.95 10.4796 1745.95 9.5089C1745.95 8.53824 1746.22 7.7669 1746.78 7.1949C1747.34 6.61424 1748.09 6.3239 1749.01 6.3239ZM1749 6.9479C1748.32 6.9479 1747.77 7.1429 1747.35 7.5329C1746.93 7.9229 1746.69 8.45157 1746.63 9.1189L1746.65 9.1319C1746.76 9.07124 1746.94 9.0409 1747.18 9.0409H1750.57C1750.81 9.0409 1751 9.0669 1751.16 9.1189L1751.17 9.1059C1751.12 8.42124 1750.9 7.89257 1750.52 7.5199C1750.15 7.13857 1749.64 6.9479 1749 6.9479Z" fill="#2B2B2A"/>
<rect x="1773" y="2.0249" width="12" height="12" rx="2" fill="#E32112"/>
<path d="M1794.9 4.5689C1795.79 3.67624 1796.93 3.2299 1798.3 3.2299C1799.68 3.2299 1800.82 3.67624 1801.71 4.5689C1802.6 5.46157 1803.05 6.5969 1803.05 7.9749C1803.05 9.3529 1802.6 10.4882 1801.71 11.3809C1800.82 12.2736 1799.68 12.7199 1798.3 12.7199C1796.93 12.7199 1795.79 12.2736 1794.9 11.3809C1794.01 10.4882 1793.56 9.3529 1793.56 7.9749C1793.56 6.5969 1794.01 5.46157 1794.9 4.5689ZM1801.16 5.0759C1800.42 4.3219 1799.47 3.9449 1798.3 3.9449C1797.14 3.9449 1796.19 4.3219 1795.44 5.0759C1794.7 5.8299 1794.33 6.79624 1794.33 7.9749C1794.33 9.15357 1794.7 10.1199 1795.44 10.8739C1796.19 11.6279 1797.14 12.0049 1798.3 12.0049C1799.47 12.0049 1800.42 11.6279 1801.16 10.8739C1801.91 10.1199 1802.28 9.15357 1802.28 7.9749C1802.28 6.79624 1801.91 5.8299 1801.16 5.0759ZM1809.49 6.5189V12.5249H1808.83V7.4289C1808.83 7.29024 1808.85 7.17757 1808.89 7.0909L1808.88 7.0779C1808.81 7.11257 1808.69 7.1299 1808.51 7.1299H1805.45C1805.27 7.1299 1805.15 7.11257 1805.08 7.0779L1805.07 7.0909C1805.11 7.17757 1805.13 7.29024 1805.13 7.4289V12.5249H1804.48V6.5189H1809.49ZM1813.66 6.3239C1814.48 6.3239 1815.09 6.51457 1815.48 6.8959C1815.87 7.27724 1816.06 7.86657 1816.06 8.6639V12.5249H1815.41C1815.41 12.1869 1815.44 11.7926 1815.49 11.3419L1815.46 11.3289C1815.27 11.7622 1814.97 12.1046 1814.55 12.3559C1814.14 12.5986 1813.67 12.7199 1813.14 12.7199C1812.43 12.7199 1811.87 12.5249 1811.43 12.1349C1811.01 11.7362 1810.8 11.2162 1810.8 10.5749C1810.8 9.9249 1811.01 9.40924 1811.43 9.0279C1811.87 8.6379 1812.44 8.4429 1813.16 8.4429C1813.69 8.4429 1814.16 8.56424 1814.57 8.8069C1814.98 9.0409 1815.28 9.36157 1815.45 9.7689L1815.49 9.7429C1815.45 9.59557 1815.42 9.2489 1815.42 8.7029C1815.42 7.55024 1814.82 6.9739 1813.64 6.9739C1813.05 6.9739 1812.38 7.09524 1811.63 7.3379L1811.43 6.6879C1812.27 6.44524 1813.01 6.3239 1813.66 6.3239ZM1813.28 9.0539C1812.74 9.0539 1812.31 9.1969 1811.99 9.4829C1811.67 9.76024 1811.51 10.1329 1811.51 10.6009C1811.51 11.0516 1811.67 11.4156 1811.99 11.6929C1812.31 11.9702 1812.74 12.1089 1813.28 12.1089C1813.84 12.1089 1814.32 11.9616 1814.71 11.6669C1815.1 11.3722 1815.29 11.0126 1815.29 10.5879C1815.29 10.1546 1815.1 9.79057 1814.71 9.4959C1814.32 9.20124 1813.84 9.0539 1813.28 9.0539ZM1820.71 12.7199C1819.75 12.7199 1818.97 12.4252 1818.37 11.8359C1817.78 11.2466 1817.48 10.4752 1817.48 9.5219C1817.48 8.56857 1817.78 7.79724 1818.37 7.2079C1818.97 6.61857 1819.75 6.3239 1820.71 6.3239C1821.46 6.3239 1822.14 6.5189 1822.75 6.9089L1822.43 7.4939C1821.86 7.14724 1821.28 6.9739 1820.69 6.9739C1819.96 6.9739 1819.36 7.21657 1818.88 7.7019C1818.41 8.17857 1818.18 8.78524 1818.18 9.5219C1818.18 10.2586 1818.41 10.8696 1818.88 11.3549C1819.36 11.8316 1819.96 12.0699 1820.69 12.0699C1821.28 12.0699 1821.86 11.8966 1822.43 11.5499L1822.75 12.1349C1822.14 12.5249 1821.46 12.7199 1820.71 12.7199ZM1828.64 6.5189H1829.3V12.5249H1828.64V9.9119C1828.64 9.7559 1828.66 9.63457 1828.7 9.5479L1828.69 9.5349C1828.6 9.57824 1828.48 9.5999 1828.34 9.5999H1825.09C1824.95 9.5999 1824.84 9.57824 1824.75 9.5349L1824.74 9.5479C1824.77 9.61724 1824.79 9.73857 1824.79 9.9119V12.5249H1824.14V6.5189H1824.79V8.6769C1824.79 8.85024 1824.77 8.97157 1824.74 9.0409L1824.75 9.0539C1824.84 9.01057 1824.95 8.9889 1825.09 8.9889H1828.34C1828.48 8.9889 1828.6 9.01057 1828.69 9.0539L1828.7 9.0409C1828.66 8.95424 1828.64 8.8329 1828.64 8.6769V6.5189ZM1834.01 6.3239C1834.95 6.3239 1835.72 6.6229 1836.32 7.2209C1836.93 7.8189 1837.23 8.5859 1837.23 9.5219C1837.23 10.4492 1836.93 11.2162 1836.32 11.8229C1835.72 12.4209 1834.95 12.7199 1834.01 12.7199C1833.07 12.7199 1832.3 12.4209 1831.69 11.8229C1831.08 11.2162 1830.78 10.4492 1830.78 9.5219C1830.78 8.5859 1831.08 7.8189 1831.69 7.2209C1832.3 6.6229 1833.07 6.3239 1834.01 6.3239ZM1835.81 7.6889C1835.34 7.21224 1834.74 6.9739 1834.01 6.9739C1833.27 6.9739 1832.66 7.21224 1832.19 7.6889C1831.72 8.16557 1831.48 8.77657 1831.48 9.5219C1831.48 10.2672 1831.72 10.8782 1832.19 11.3549C1832.66 11.8316 1833.27 12.0699 1834.01 12.0699C1834.74 12.0699 1835.34 11.8316 1835.81 11.3549C1836.29 10.8782 1836.53 10.2672 1836.53 9.5219C1836.53 8.77657 1836.29 8.16557 1835.81 7.6889ZM1841.53 12.7199C1840.57 12.7199 1839.79 12.4252 1839.19 11.8359C1838.6 11.2466 1838.3 10.4752 1838.3 9.5219C1838.3 8.56857 1838.6 7.79724 1839.19 7.2079C1839.79 6.61857 1840.57 6.3239 1841.53 6.3239C1842.28 6.3239 1842.96 6.5189 1843.57 6.9089L1843.25 7.4939C1842.68 7.14724 1842.1 6.9739 1841.51 6.9739C1840.78 6.9739 1840.18 7.21657 1839.7 7.7019C1839.23 8.17857 1839 8.78524 1839 9.5219C1839 10.2586 1839.23 10.8696 1839.7 11.3549C1840.18 11.8316 1840.78 12.0699 1841.51 12.0699C1842.1 12.0699 1842.68 11.8966 1843.25 11.5499L1843.57 12.1349C1842.96 12.5249 1842.28 12.7199 1841.53 12.7199ZM1844.07 6.5189H1849.77V7.1299H1847.56C1847.39 7.1299 1847.26 7.11257 1847.19 7.0779L1847.18 7.0909C1847.23 7.17757 1847.25 7.29024 1847.25 7.4289V12.5249H1846.6V7.4289C1846.6 7.29024 1846.62 7.17757 1846.66 7.0909L1846.65 7.0779C1846.58 7.11257 1846.46 7.1299 1846.28 7.1299H1844.07V6.5189ZM1853.39 8.7809C1854 8.7809 1854.49 8.9499 1854.85 9.2879C1855.23 9.61724 1855.41 10.0722 1855.41 10.6529C1855.41 11.2249 1855.23 11.6799 1854.85 12.0179C1854.48 12.3559 1853.99 12.5249 1853.39 12.5249H1850.79V6.5189H1851.44V8.4819C1851.44 8.64657 1851.42 8.76357 1851.38 8.8329L1851.4 8.8459C1851.47 8.80257 1851.59 8.7809 1851.73 8.7809H1853.39ZM1853.36 11.9139C1853.78 11.9139 1854.11 11.8012 1854.35 11.5759C1854.59 11.3419 1854.71 11.0342 1854.71 10.6529C1854.71 10.2716 1854.59 9.96824 1854.36 9.7429C1854.13 9.51757 1853.79 9.4049 1853.36 9.4049H1851.73C1851.59 9.4049 1851.47 9.38324 1851.4 9.3399L1851.38 9.3529C1851.42 9.42224 1851.44 9.54357 1851.44 9.7169V11.6149C1851.44 11.7536 1851.41 11.8662 1851.37 11.9529L1851.38 11.9659C1851.45 11.9312 1851.57 11.9139 1851.75 11.9139H1853.36Z" fill="#2B2B2A"/>
</g>
<defs>
<filter id="filter0_d_392_13971" x="-4" y="0.524902" width="1864" height="23" filterUnits="userSpaceOnUse" color-interpolation-filters="sRGB">
<feFlood flood-opacity="0" result="BackgroundImageFix"/>
<feColorMatrix in="SourceAlpha" type="matrix" values="0 0 0 0 0 0 0 0 0 0 0 0 0 0 0 0 0 0 127 0" result="hardAlpha"/>
<feOffset dy="4"/>
<feGaussianBlur stdDeviation="2"/>
<feComposite in2="hardAlpha" operator="out"/>
<feColorMatrix type="matrix" values="0 0 0 0 0 0 0 0 0 0 0 0 0 0 0 0 0 0 0.25 0"/>
<feBlend mode="normal" in2="BackgroundImageFix" result="effect1_dropShadow_392_13971"/>
<feBlend mode="normal" in="SourceGraphic" in2="effect1_dropShadow_392_13971" result="shape"/>
</filter>
<clipPath id="clip0_392_13971">
<rect width="14" height="14" fill="white" transform="translate(1268 1.0249)"/>
</clipPath>
</defs>
</svg>
