<svg width="260" height="139" viewBox="0 0 260 139" fill="none" xmlns="http://www.w3.org/2000/svg">
<rect x="1.00024" y="1.5249" width="258" height="136" rx="5" fill="#EFF2F6"/>
<rect x="170" y="18.5248" width="60" height="50" rx="3.50693" fill="#677272"/>
<path d="M167 31.5249H170V57.5249L167 53.7074V31.5249Z" fill="#3B4848"/>
<path d="M233 57.5248L230 57.5248L230 31.5248L233 35.3424L233 57.5248Z" fill="#3B4848"/>
<rect x="79.0002" y="31.5249" width="61" height="51" rx="4.54549" fill="#677272"/>
<path d="M82.5002 33.5249L83.1452 33.9077L83.7993 34.2749L83.7902 35.0249L83.7993 35.7749L83.1452 36.1421L82.5002 36.5249L81.8552 36.1421L81.2012 35.7749L81.2102 35.0249L81.2012 34.2749L81.8552 33.9077L82.5002 33.5249Z" fill="#8D9595"/>
<path d="M82.5002 77.55L83.1452 77.9329L83.7993 78.3L83.7902 79.05L83.7993 79.8L83.1452 80.1672L82.5002 80.55L81.8552 80.1672L81.2012 79.8L81.2102 79.05L81.2012 78.3L81.8552 77.9329L82.5002 77.55Z" fill="#8D9595"/>
<path d="M82.5002 55.0376L83.1452 55.4204L83.7993 55.7876L83.7902 56.5376L83.7993 57.2876L83.1452 57.6548L82.5002 58.0376L81.8552 57.6548L81.2012 57.2876L81.2102 56.5376L81.2012 55.7876L81.8552 55.4204L82.5002 55.0376Z" fill="#8D9595"/>
<path d="M136.5 33.5249L137.145 33.9077L137.799 34.2749L137.79 35.0249L137.799 35.7749L137.145 36.1421L136.5 36.5249L135.855 36.1421L135.201 35.7749L135.21 35.0249L135.201 34.2749L135.855 33.9077L136.5 33.5249Z" fill="#8D9595"/>
<path d="M136.5 77.55L137.145 77.9329L137.799 78.3L137.79 79.05L137.799 79.8L137.145 80.1672L136.5 80.55L135.855 80.1672L135.201 79.8L135.21 79.05L135.201 78.3L135.855 77.9329L136.5 77.55Z" fill="#8D9595"/>
<path d="M136.5 55.0376L137.145 55.4204L137.799 55.7876L137.79 56.5376L137.799 57.2876L137.145 57.6548L136.5 58.0376L135.855 57.6548L135.201 57.2876L135.21 56.5376L135.201 55.7876L135.855 55.4204L136.5 55.0376Z" fill="#8D9595"/>
<path d="M109.828 33.5249L110.473 33.9077L111.127 34.2749L111.118 35.0249L111.127 35.7749L110.473 36.1421L109.828 36.5249L109.183 36.1421L108.528 35.7749L108.538 35.0249L108.528 34.2749L109.183 33.9077L109.828 33.5249Z" fill="#8D9595"/>
<path d="M109.827 77.55L110.472 77.9329L111.126 78.3L111.117 79.05L111.126 79.8L110.472 80.1672L109.827 80.55L109.182 80.1672L108.528 79.8L108.537 79.05L108.528 78.3L109.182 77.9329L109.827 77.55Z" fill="#8D9595"/>
<mask id="path-14-inside-1_392_14199" fill="white">
<rect x="87.0002" y="39.525" width="21" height="16" rx="0.757583"/>
</mask>
<rect x="87.0002" y="39.525" width="21" height="16" rx="0.757583" fill="#414F4F" stroke="#8D9595" stroke-width="2" mask="url(#path-14-inside-1_392_14199)"/>
<mask id="path-15-inside-2_392_14199" fill="white">
<rect x="87.0002" y="58.525" width="21" height="16" rx="0.757583"/>
</mask>
<rect x="87.0002" y="58.525" width="21" height="16" rx="0.757583" fill="#414F4F" stroke="#8D9595" stroke-width="2" mask="url(#path-15-inside-2_392_14199)"/>
<mask id="path-16-inside-3_392_14199" fill="white">
<rect x="111" y="39.525" width="21" height="16" rx="0.757583"/>
</mask>
<rect x="111" y="39.525" width="21" height="16" rx="0.757583" fill="#414F4F" stroke="#8D9595" stroke-width="2" mask="url(#path-16-inside-3_392_14199)"/>
<mask id="path-17-inside-4_392_14199" fill="white">
<rect x="111" y="58.525" width="21" height="16" rx="0.757583"/>
</mask>
<rect x="111" y="58.525" width="21" height="16" rx="0.757583" fill="#414F4F" stroke="#8D9595" stroke-width="2" mask="url(#path-17-inside-4_392_14199)"/>
<rect x="10.0002" y="56.5248" width="16" height="28" rx="2.27275" fill="#677272"/>
<path d="M12.5002 57.8198L13.1452 58.2026L13.7993 58.5698L13.7902 59.3198L13.7993 60.0698L13.1452 60.4369L12.5002 60.8198L11.8552 60.4369L11.2012 60.0698L11.2102 59.3198L11.2012 58.5698L11.8552 58.2026L12.5002 57.8198Z" fill="#8D9595"/>
<path d="M12.5002 80.7774L13.1452 81.1602L13.7993 81.5274L13.7902 82.2774L13.7993 83.0274L13.1452 83.3946L12.5002 83.7774L11.8552 83.3946L11.2012 83.0274L11.2102 82.2774L11.2012 81.5274L11.8552 81.1602L12.5002 80.7774Z" fill="#8D9595"/>
<path d="M23.5002 57.7774L24.1452 58.1602L24.7993 58.5274L24.7902 59.2774L24.7993 60.0274L24.1452 60.3946L23.5002 60.7774L22.8552 60.3946L22.2012 60.0274L22.2102 59.2774L22.2012 58.5274L22.8552 58.1602L23.5002 57.7774Z" fill="#8D9595"/>
<path d="M23.5002 80.7774L24.1452 81.1602L24.7993 81.5274L24.7902 82.2774L24.7993 83.0274L24.1452 83.3946L23.5002 83.7774L22.8552 83.3946L22.2012 83.0274L22.2102 82.2774L22.2012 81.5274L22.8552 81.1602L23.5002 80.7774Z" fill="#8D9595"/>
<path d="M14.0003 66.5248H29.0003V76.5248H14.0003V66.5248Z" fill="#3B4848"/>
<mask id="path-24-inside-5_392_14199" fill="white">
<rect x="13.0003" y="61.5248" width="10" height="18" rx="0.757583"/>
</mask>
<rect x="13.0003" y="61.5248" width="10" height="18" rx="0.757583" fill="#414F4F" stroke="#8D9595" stroke-width="2" mask="url(#path-24-inside-5_392_14199)"/>
<rect x="55.0002" y="56.5249" width="16" height="28" rx="2.27275" fill="#677272"/>
<path d="M57.5002 57.8198L58.1452 58.2027L58.7993 58.5698L58.7902 59.3198L58.7993 60.0698L58.1452 60.437L57.5002 60.8198L56.8552 60.437L56.2012 60.0698L56.2102 59.3198L56.2012 58.5698L56.8552 58.2027L57.5002 57.8198Z" fill="#8D9595"/>
<path d="M57.5002 80.7775L58.1452 81.1603L58.7993 81.5275L58.7902 82.2775L58.7993 83.0275L58.1452 83.3946L57.5002 83.7775L56.8552 83.3946L56.2012 83.0275L56.2102 82.2775L56.2012 81.5275L56.8552 81.1603L57.5002 80.7775Z" fill="#8D9595"/>
<path d="M68.5002 57.7775L69.1452 58.1603L69.7993 58.5275L69.7902 59.2775L69.7993 60.0275L69.1452 60.3946L68.5002 60.7775L67.8552 60.3946L67.2012 60.0275L67.2102 59.2775L67.2012 58.5275L67.8552 58.1603L68.5002 57.7775Z" fill="#8D9595"/>
<path d="M68.5002 80.7775L69.1452 81.1603L69.7993 81.5275L69.7902 82.2775L69.7993 83.0275L69.1452 83.3946L68.5002 83.7775L67.8552 83.3946L67.2012 83.0275L67.2102 82.2775L67.2012 81.5275L67.8552 81.1603L68.5002 80.7775Z" fill="#8D9595"/>
<path d="M53.0002 66.5249H79.0002V76.5249H53.0002V66.5249Z" fill="#3B4848"/>
<mask id="path-31-inside-6_392_14199" fill="white">
<rect x="58.0002" y="61.5249" width="10" height="18" rx="0.757583"/>
</mask>
<rect x="58.0002" y="61.5249" width="10" height="18" rx="0.757583" fill="#414F4F" stroke="#8D9595" stroke-width="2" mask="url(#path-31-inside-6_392_14199)"/>
<rect x="150" y="29.5249" width="16" height="28" rx="2.27275" fill="#677272"/>
<path d="M152.5 30.8198L153.145 31.2027L153.799 31.5698L153.79 32.3198L153.799 33.0698L153.145 33.437L152.5 33.8198L151.855 33.437L151.201 33.0698L151.21 32.3198L151.201 31.5698L151.855 31.2027L152.5 30.8198Z" fill="#8D9595"/>
<path d="M152.5 53.7775L153.145 54.1603L153.799 54.5275L153.79 55.2775L153.799 56.0275L153.145 56.3946L152.5 56.7775L151.855 56.3946L151.201 56.0275L151.21 55.2775L151.201 54.5275L151.855 54.1603L152.5 53.7775Z" fill="#8D9595"/>
<path d="M163.5 30.7775L164.145 31.1603L164.799 31.5275L164.79 32.2775L164.799 33.0275L164.145 33.3946L163.5 33.7775L162.855 33.3946L162.201 33.0275L162.21 32.2775L162.201 31.5275L162.855 31.1603L163.5 30.7775Z" fill="#8D9595"/>
<path d="M163.5 53.7775L164.145 54.1603L164.799 54.5275L164.79 55.2775L164.799 56.0275L164.145 56.3946L163.5 56.7775L162.855 56.3946L162.201 56.0275L162.21 55.2775L162.201 54.5275L162.855 54.1603L163.5 53.7775Z" fill="#8D9595"/>
<path d="M140 39.5249H167V49.5249H140V39.5249Z" fill="#3B4848"/>
<mask id="path-38-inside-7_392_14199" fill="white">
<rect x="153" y="34.5249" width="10" height="18" rx="0.757583"/>
</mask>
<rect x="153" y="34.5249" width="10" height="18" rx="0.757583" fill="#414F4F" stroke="#8D9595" stroke-width="2" mask="url(#path-38-inside-7_392_14199)"/>
<rect x="234" y="29.5249" width="16" height="28" rx="2.27275" fill="#677272"/>
<path d="M236.5 30.8198L237.145 31.2027L237.799 31.5698L237.79 32.3198L237.799 33.0698L237.145 33.437L236.5 33.8198L235.855 33.437L235.201 33.0698L235.21 32.3198L235.201 31.5698L235.855 31.2027L236.5 30.8198Z" fill="#8D9595"/>
<path d="M236.5 53.7775L237.145 54.1603L237.799 54.5275L237.79 55.2775L237.799 56.0275L237.145 56.3946L236.5 56.7775L235.855 56.3946L235.201 56.0275L235.21 55.2775L235.201 54.5275L235.855 54.1603L236.5 53.7775Z" fill="#8D9595"/>
<path d="M247.5 30.7775L248.145 31.1603L248.799 31.5275L248.79 32.2775L248.799 33.0275L248.145 33.3946L247.5 33.7775L246.855 33.3946L246.201 33.0275L246.21 32.2775L246.201 31.5275L246.855 31.1603L247.5 30.7775Z" fill="#8D9595"/>
<path d="M247.5 53.7775L248.145 54.1603L248.799 54.5275L248.79 55.2775L248.799 56.0275L248.145 56.3946L247.5 56.7775L246.855 56.3946L246.201 56.0275L246.21 55.2775L246.201 54.5275L246.855 54.1603L247.5 53.7775Z" fill="#8D9595"/>
<path d="M231 39.5249H247V49.5249H231V39.5249Z" fill="#3B4848"/>
<mask id="path-45-inside-8_392_14199" fill="white">
<rect x="237" y="34.5249" width="10" height="18" rx="0.757583"/>
</mask>
<rect x="237" y="34.5249" width="10" height="18" rx="0.757583" fill="#414F4F" stroke="#8D9595" stroke-width="2" mask="url(#path-45-inside-8_392_14199)"/>
<rect x="29.5262" y="42.0509" width="22.9479" height="54.9479" fill="#8D9595" stroke="#677272" stroke-width="1.05208"/>
<rect x="29.2743" y="43.9619" width="23.0458" height="1.40277" fill="#677272"/>
<rect x="29.2742" y="49.573" width="23.0458" height="1.40277" fill="#677272"/>
<rect x="29.2742" y="55.1841" width="23.0458" height="1.40277" fill="#677272"/>
<rect x="29.2742" y="60.7952" width="23.0458" height="1.40277" fill="#677272"/>
<rect x="29.2742" y="66.4064" width="23.0458" height="1.40277" fill="#677272"/>
<rect x="29.2743" y="72.0173" width="23.0458" height="1.40277" fill="#677272"/>
<rect x="29.2742" y="77.6285" width="23.0458" height="1.40277" fill="#677272"/>
<rect x="29.2742" y="83.2396" width="23.0458" height="1.40277" fill="#677272"/>
<rect x="29.2742" y="88.8508" width="23.0458" height="1.40277" fill="#677272"/>
<rect x="29.2742" y="94.4619" width="23.0458" height="1.40277" fill="#677272"/>
<path d="M11.94 20.5644L29.0003 41.5248H53.0003L70.4465 20.5644V10.5248H11.94V20.5644Z" fill="#677272"/>
<path d="M70.0003 118.654L53.0003 97.5248L28.9477 97.5248L12.0003 118.654L12.0003 128.525L70.0003 128.525L70.0003 118.654Z" fill="#677272"/>
<rect x="1.00024" y="1.5249" width="258" height="136" rx="5" stroke="#CED7E7" stroke-width="2"/>
</svg>
