<svg width="36" height="21" viewBox="0 0 36 21" fill="none" xmlns="http://www.w3.org/2000/svg">
<rect x="1.49609" y="0.998047" width="34" height="19" rx="1.5" fill="#FEF0D8"/>
<path d="M12.5871 5.89805V7.01605H10.2601C10.0954 7.01605 9.98276 7.00305 9.92209 6.97705L9.90909 7.00305C9.93509 7.06371 9.94809 7.16771 9.94809 7.31505V14.998H8.77809V7.31505C8.77809 7.16771 8.79109 7.06371 8.81709 7.00305L8.79109 6.97705C8.73043 7.00305 8.62209 7.01605 8.46609 7.01605H6.12609V5.89805H12.5871Z" fill="#262626"/>
<g clip-path="url(#clip0_326_8217)">
<path d="M24.6123 11.945C24.5767 11.9224 24.5474 11.8913 24.5271 11.8544C24.5068 11.8175 24.4961 11.7761 24.496 11.734V4.99902C24.496 4.6012 24.338 4.21967 24.0567 3.93836C23.7754 3.65706 23.3938 3.49902 22.996 3.49902C22.5982 3.49902 22.2167 3.65706 21.9354 3.93836C21.6541 4.21967 21.496 4.6012 21.496 4.99902V11.734C21.496 11.776 21.4853 11.8174 21.465 11.8542C21.4448 11.891 21.4156 11.9221 21.3801 11.9447C20.9358 12.2341 20.5747 12.6344 20.3325 13.1061C20.0903 13.5779 19.9754 14.1046 19.9991 14.6343C20.0349 15.4172 20.3756 16.155 20.9483 16.6899C21.521 17.2248 22.2802 17.5144 23.0637 17.4967C23.8472 17.479 24.5926 17.1555 25.1406 16.5953C25.6886 16.0351 25.9956 15.2827 25.996 14.499C25.9962 13.9918 25.8698 13.4925 25.6281 13.0465C25.3865 12.6004 25.0373 12.2218 24.6123 11.945V11.945Z" stroke="#D38603" stroke-width="1.00189" stroke-miterlimit="10" stroke-linecap="round"/>
<path d="M22.9961 5.99951V14.4995" stroke="#D38603" stroke-width="1.00189" stroke-miterlimit="10" stroke-linecap="round"/>
<path d="M22.9972 16.0003C23.8262 16.0003 24.4983 15.3282 24.4983 14.4992C24.4983 13.6701 23.8262 12.998 22.9972 12.998C22.1682 12.998 21.4961 13.6701 21.4961 14.4992C21.4961 15.3282 22.1682 16.0003 22.9972 16.0003Z" fill="#D38603"/>
</g>
<rect x="1.49609" y="0.998047" width="34" height="19" rx="1.5" stroke="#FDD796"/>
<defs>
<clipPath id="clip0_326_8217">
<rect width="16" height="16" fill="white" transform="translate(14.9961 2.49805)"/>
</clipPath>
</defs>
</svg>
