<svg width="35" height="21" viewBox="0 0 35 21" fill="none" xmlns="http://www.w3.org/2000/svg">
<rect x="0.5" y="1" width="34" height="19" rx="1.5" fill="#FDF0EF"/>
<path d="M11.591 5.9V7.018H9.264C9.09933 7.018 8.98667 7.005 8.926 6.979L8.913 7.005C8.939 7.06567 8.952 7.16967 8.952 7.317V15H7.782V7.317C7.782 7.16967 7.795 7.06567 7.821 7.005L7.795 6.979C7.73433 7.005 7.626 7.018 7.47 7.018H5.13V5.9H11.591Z" fill="#262626"/>
<path d="M23.6162 11.9469C23.5806 11.9244 23.5513 11.8932 23.531 11.8564C23.5107 11.8195 23.5 11.7781 23.4999 11.736V5.00098C23.4999 4.60315 23.3419 4.22162 23.0606 3.94032C22.7793 3.65901 22.3978 3.50098 21.9999 3.50098C21.6021 3.50098 21.2206 3.65901 20.9393 3.94032C20.658 4.22162 20.4999 4.60315 20.4999 5.00098V11.736C20.4999 11.778 20.4892 11.8193 20.4689 11.8561C20.4487 11.893 20.4195 11.9241 20.384 11.9466C19.9397 12.236 19.5786 12.6364 19.3364 13.1081C19.0942 13.5798 18.9793 14.1066 19.0031 14.6363C19.0388 15.4191 19.3795 16.1569 19.9522 16.6918C20.5249 17.2267 21.2841 17.5163 22.0676 17.4986C22.8511 17.481 23.5965 17.1574 24.1445 16.5972C24.6925 16.037 24.9995 15.2846 24.9999 14.501C25.0001 13.9937 24.8737 13.4944 24.6321 13.0484C24.3904 12.6024 24.0412 12.2238 23.6162 11.9469V11.9469Z" stroke="#EB3333" stroke-width="1.00189" stroke-miterlimit="10" stroke-linecap="round"/>
<path d="M22 6.00146V14.5015" stroke="#EB3333" stroke-width="1.00189" stroke-miterlimit="10" stroke-linecap="round"/>
<path d="M22.0011 16.0022C22.8301 16.0022 23.5022 15.3301 23.5022 14.5011C23.5022 13.6721 22.8301 13 22.0011 13C21.1721 13 20.5 13.6721 20.5 14.5011C20.5 15.3301 21.1721 16.0022 22.0011 16.0022Z" fill="#EB3333"/>
<rect x="0.5" y="1" width="34" height="19" rx="1.5" stroke="#F48981"/>
</svg>
